<svg xmlns="http://www.w3.org/2000/svg" width="804" height="472" viewBox="0 0 804 472" font-family="sans-serif" role="img" aria-label="Tiempo de cómputo según N">
<rect width="100%" height="100%" fill="#fcfcfb"/>
<text x="64" y="24" font-size="15" font-weight="600" fill="#0b0b0b">Tiempo de cómputo según N</text>
<line x1="64" y1="44" x2="86" y2="44" stroke="#2a78d6" stroke-width="2"/>
<circle cx="75.0" cy="44.0" r="4.5" fill="#2a78d6" stroke="#fcfcfb" stroke-width="2"/>
<text x="92" y="48" font-size="12" fill="#52514e">K = 5</text>
<line x1="154" y1="44" x2="176" y2="44" stroke="#eb6834" stroke-width="2"/>
<rect x="160.5" y="39.5" width="9.0" height="9.0" rx="1" fill="#eb6834" stroke="#fcfcfb" stroke-width="2"/>
<text x="182" y="48" font-size="12" fill="#52514e">K = 25</text>
<line x1="244" y1="44" x2="266" y2="44" stroke="#1baf7a" stroke-width="2"/>
<polygon points="255.0,38.5 260.5,48.5 249.5,48.5" fill="#1baf7a" stroke="#fcfcfb" stroke-width="2"/>
<text x="272" y="48" font-size="12" fill="#52514e">K = 100</text>
<text x="229.0" y="70" font-size="13" text-anchor="middle" fill="#0b0b0b">search</text>
<line x1="64" y1="386.0" x2="394" y2="386.0" stroke="#e4e3df" stroke-width="1"/>
<text x="56" y="390.0" font-size="11" text-anchor="end" fill="#52514e">0</text>
<line x1="64" y1="311.0" x2="394" y2="311.0" stroke="#e4e3df" stroke-width="1"/>
<text x="56" y="315.0" font-size="11" text-anchor="end" fill="#52514e">1</text>
<line x1="64" y1="236.0" x2="394" y2="236.0" stroke="#e4e3df" stroke-width="1"/>
<text x="56" y="240.0" font-size="11" text-anchor="end" fill="#52514e">2</text>
<line x1="64" y1="161.0" x2="394" y2="161.0" stroke="#e4e3df" stroke-width="1"/>
<text x="56" y="165.0" font-size="11" text-anchor="end" fill="#52514e">3</text>
<line x1="64" y1="86.0" x2="394" y2="86.0" stroke="#e4e3df" stroke-width="1"/>
<text x="56" y="90.0" font-size="11" text-anchor="end" fill="#52514e">4</text>
<text x="84.0" y="404" font-size="11" text-anchor="middle" fill="#52514e">8</text>
<text x="180.7" y="404" font-size="11" text-anchor="middle" fill="#52514e">16</text>
<text x="277.3" y="404" font-size="11" text-anchor="middle" fill="#52514e">32</text>
<text x="374.0" y="404" font-size="11" text-anchor="middle" fill="#52514e">48</text>
<text x="229.0" y="424" font-size="12" text-anchor="middle" fill="#52514e">N</text>
<polyline points="84.0,385.6 180.7,384.1 277.3,377.8 374.0,365.2" fill="none" stroke="#2a78d6" stroke-width="2"/>
<circle cx="84.0" cy="385.6" r="4.5" fill="#2a78d6" stroke="#fcfcfb" stroke-width="2"/>
<circle cx="180.7" cy="384.1" r="4.5" fill="#2a78d6" stroke="#fcfcfb" stroke-width="2"/>
<circle cx="277.3" cy="377.8" r="4.5" fill="#2a78d6" stroke="#fcfcfb" stroke-width="2"/>
<line x1="374.0" y1="364.3" x2="374.0" y2="366.1" stroke="#2a78d6" stroke-width="1.5"/>
<circle cx="374.0" cy="365.2" r="4.5" fill="#2a78d6" stroke="#fcfcfb" stroke-width="2"/>
<polyline points="84.0,385.4 180.7,382.8 277.3,373.3 374.0,360.5" fill="none" stroke="#eb6834" stroke-width="2"/>
<rect x="79.5" y="380.9" width="9.0" height="9.0" rx="1" fill="#eb6834" stroke="#fcfcfb" stroke-width="2"/>
<line x1="180.7" y1="382.2" x2="180.7" y2="383.5" stroke="#eb6834" stroke-width="1.5"/>
<rect x="176.2" y="378.3" width="9.0" height="9.0" rx="1" fill="#eb6834" stroke="#fcfcfb" stroke-width="2"/>
<line x1="277.3" y1="371.2" x2="277.3" y2="375.4" stroke="#eb6834" stroke-width="1.5"/>
<rect x="272.8" y="368.8" width="9.0" height="9.0" rx="1" fill="#eb6834" stroke="#fcfcfb" stroke-width="2"/>
<line x1="374.0" y1="359.2" x2="374.0" y2="361.8" stroke="#eb6834" stroke-width="1.5"/>
<rect x="369.5" y="356.0" width="9.0" height="9.0" rx="1" fill="#eb6834" stroke="#fcfcfb" stroke-width="2"/>
<polyline points="84.0,186.5 180.7,326.4 277.3,366.8 374.0,349.7" fill="none" stroke="#1baf7a" stroke-width="2"/>
<line x1="84.0" y1="175.6" x2="84.0" y2="197.4" stroke="#1baf7a" stroke-width="1.5"/>
<polygon points="84.0,181.0 89.5,191.0 78.5,191.0" fill="#1baf7a" stroke="#fcfcfb" stroke-width="2"/>
<line x1="180.7" y1="230.3" x2="180.7" y2="386.0" stroke="#1baf7a" stroke-width="1.5"/>
<polygon points="180.7,320.9 186.2,330.9 175.2,330.9" fill="#1baf7a" stroke="#fcfcfb" stroke-width="2"/>
<line x1="277.3" y1="363.6" x2="277.3" y2="370.1" stroke="#1baf7a" stroke-width="1.5"/>
<polygon points="277.3,361.3 282.8,371.3 271.8,371.3" fill="#1baf7a" stroke="#fcfcfb" stroke-width="2"/>
<line x1="374.0" y1="347.8" x2="374.0" y2="351.5" stroke="#1baf7a" stroke-width="1.5"/>
<polygon points="374.0,344.2 379.5,354.2 368.5,354.2" fill="#1baf7a" stroke="#fcfcfb" stroke-width="2"/>
<text x="383.0" y="353.7" font-size="11" fill="#52514e">K=100</text>
<text x="383.0" y="366.7" font-size="11" fill="#52514e">K=25</text>
<text x="383.0" y="379.7" font-size="11" fill="#52514e">K=5</text>
<line x1="64" y1="386" x2="394" y2="386" stroke="#52514e" stroke-width="1"/>
<text x="615.0" y="70" font-size="13" text-anchor="middle" fill="#0b0b0b">evolutionary</text>
<line x1="450" y1="386.0" x2="780" y2="386.0" stroke="#e4e3df" stroke-width="1"/>
<line x1="450" y1="311.0" x2="780" y2="311.0" stroke="#e4e3df" stroke-width="1"/>
<line x1="450" y1="236.0" x2="780" y2="236.0" stroke="#e4e3df" stroke-width="1"/>
<line x1="450" y1="161.0" x2="780" y2="161.0" stroke="#e4e3df" stroke-width="1"/>
<line x1="450" y1="86.0" x2="780" y2="86.0" stroke="#e4e3df" stroke-width="1"/>
<text x="470.0" y="404" font-size="11" text-anchor="middle" fill="#52514e">8</text>
<text x="566.7" y="404" font-size="11" text-anchor="middle" fill="#52514e">16</text>
<text x="663.3" y="404" font-size="11" text-anchor="middle" fill="#52514e">32</text>
<text x="760.0" y="404" font-size="11" text-anchor="middle" fill="#52514e">48</text>
<text x="615.0" y="424" font-size="12" text-anchor="middle" fill="#52514e">N</text>
<polyline points="470.0,385.9 566.7,385.6 663.3,384.5 760.0,382.5" fill="none" stroke="#2a78d6" stroke-width="2"/>
<circle cx="470.0" cy="385.9" r="4.5" fill="#2a78d6" stroke="#fcfcfb" stroke-width="2"/>
<circle cx="566.7" cy="385.6" r="4.5" fill="#2a78d6" stroke="#fcfcfb" stroke-width="2"/>
<circle cx="663.3" cy="384.5" r="4.5" fill="#2a78d6" stroke="#fcfcfb" stroke-width="2"/>
<circle cx="760.0" cy="382.5" r="4.5" fill="#2a78d6" stroke="#fcfcfb" stroke-width="2"/>
<polyline points="470.0,380.8 566.7,357.1 663.3,169.5 760.0,201.8" fill="none" stroke="#eb6834" stroke-width="2"/>
<line x1="470.0" y1="375.4" x2="470.0" y2="386.0" stroke="#eb6834" stroke-width="1.5"/>
<rect x="465.5" y="376.3" width="9.0" height="9.0" rx="1" fill="#eb6834" stroke="#fcfcfb" stroke-width="2"/>
<line x1="566.7" y1="331.3" x2="566.7" y2="382.9" stroke="#eb6834" stroke-width="1.5"/>
<rect x="562.2" y="352.6" width="9.0" height="9.0" rx="1" fill="#eb6834" stroke="#fcfcfb" stroke-width="2"/>
<line x1="663.3" y1="154.5" x2="663.3" y2="184.5" stroke="#eb6834" stroke-width="1.5"/>
<rect x="658.8" y="165.0" width="9.0" height="9.0" rx="1" fill="#eb6834" stroke="#fcfcfb" stroke-width="2"/>
<line x1="760.0" y1="194.9" x2="760.0" y2="208.7" stroke="#eb6834" stroke-width="1.5"/>
<rect x="755.5" y="197.3" width="9.0" height="9.0" rx="1" fill="#eb6834" stroke="#fcfcfb" stroke-width="2"/>
<polyline points="470.0,270.8 566.7,215.3 663.3,141.0 760.0,149.1" fill="none" stroke="#1baf7a" stroke-width="2"/>
<line x1="470.0" y1="261.4" x2="470.0" y2="280.3" stroke="#1baf7a" stroke-width="1.5"/>
<polygon points="470.0,265.3 475.5,275.3 464.5,275.3" fill="#1baf7a" stroke="#fcfcfb" stroke-width="2"/>
<line x1="566.7" y1="115.0" x2="566.7" y2="315.7" stroke="#1baf7a" stroke-width="1.5"/>
<polygon points="566.7,209.8 572.2,219.8 561.2,219.8" fill="#1baf7a" stroke="#fcfcfb" stroke-width="2"/>
<line x1="663.3" y1="127.0" x2="663.3" y2="155.1" stroke="#1baf7a" stroke-width="1.5"/>
<polygon points="663.3,135.5 668.8,145.5 657.8,145.5" fill="#1baf7a" stroke="#fcfcfb" stroke-width="2"/>
<line x1="760.0" y1="125.9" x2="760.0" y2="172.3" stroke="#1baf7a" stroke-width="1.5"/>
<polygon points="760.0,143.6 765.5,153.6 754.5,153.6" fill="#1baf7a" stroke="#fcfcfb" stroke-width="2"/>
<text x="769.0" y="153.1" font-size="11" fill="#52514e">K=100</text>
<text x="769.0" y="205.8" font-size="11" fill="#52514e">K=25</text>
<text x="769.0" y="386.5" font-size="11" fill="#52514e">K=5</text>
<line x1="450" y1="386" x2="780" y2="386" stroke="#52514e" stroke-width="1"/>
<text x="16" y="236.0" font-size="12" fill="#52514e" text-anchor="middle" transform="rotate(-90 16 236.0)">segundos</text>
<text x="64" y="464" font-size="11" fill="#52514e">Media entre semillas; las barras verticales indican ± una desviación estándar.</text>
</svg>