<svg xmlns="http://www.w3.org/2000/svg" width="804" height="472" viewBox="0 0 804 472" font-family="sans-serif" role="img" aria-label="Celdas ocupadas al terminar según N">
<rect width="100%" height="100%" fill="#fcfcfb"/>
<text x="64" y="24" font-size="15" font-weight="600" fill="#0b0b0b">Celdas ocupadas al terminar según N</text>
<line x1="64" y1="44" x2="86" y2="44" stroke="#2a78d6" stroke-width="2"/>
<circle cx="75.0" cy="44.0" r="4.5" fill="#2a78d6" stroke="#fcfcfb" stroke-width="2"/>
<text x="92" y="48" font-size="12" fill="#52514e">K = 5</text>
<line x1="154" y1="44" x2="176" y2="44" stroke="#eb6834" stroke-width="2"/>
<rect x="160.5" y="39.5" width="9.0" height="9.0" rx="1" fill="#eb6834" stroke="#fcfcfb" stroke-width="2"/>
<text x="182" y="48" font-size="12" fill="#52514e">K = 25</text>
<line x1="244" y1="44" x2="266" y2="44" stroke="#1baf7a" stroke-width="2"/>
<polygon points="255.0,38.5 260.5,48.5 249.5,48.5" fill="#1baf7a" stroke="#fcfcfb" stroke-width="2"/>
<text x="272" y="48" font-size="12" fill="#52514e">K = 100</text>
<text x="229.0" y="70" font-size="13" text-anchor="middle" fill="#0b0b0b">search</text>
<line x1="64" y1="386.0" x2="394" y2="386.0" stroke="#e4e3df" stroke-width="1"/>
<text x="56" y="390.0" font-size="11" text-anchor="end" fill="#52514e">0</text>
<line x1="64" y1="286.0" x2="394" y2="286.0" stroke="#e4e3df" stroke-width="1"/>
<text x="56" y="290.0" font-size="11" text-anchor="end" fill="#52514e">50</text>
<line x1="64" y1="186.0" x2="394" y2="186.0" stroke="#e4e3df" stroke-width="1"/>
<text x="56" y="190.0" font-size="11" text-anchor="end" fill="#52514e">100</text>
<line x1="64" y1="86.0" x2="394" y2="86.0" stroke="#e4e3df" stroke-width="1"/>
<text x="56" y="90.0" font-size="11" text-anchor="end" fill="#52514e">150</text>
<text x="84.0" y="404" font-size="11" text-anchor="middle" fill="#52514e">80</text>
<text x="229.0" y="404" font-size="11" text-anchor="middle" fill="#52514e">96</text>
<text x="374.0" y="404" font-size="11" text-anchor="middle" fill="#52514e">128</text>
<text x="229.0" y="424" font-size="12" text-anchor="middle" fill="#52514e">N</text>
<polyline points="84.0,376.0 229.0,376.0 374.0,376.0" fill="none" stroke="#2a78d6" stroke-width="2"/>
<circle cx="84.0" cy="376.0" r="4.5" fill="#2a78d6" stroke="#fcfcfb" stroke-width="2"/>
<circle cx="229.0" cy="376.0" r="4.5" fill="#2a78d6" stroke="#fcfcfb" stroke-width="2"/>
<circle cx="374.0" cy="376.0" r="4.5" fill="#2a78d6" stroke="#fcfcfb" stroke-width="2"/>
<polyline points="84.0,336.0 229.0,336.0 374.0,336.0" fill="none" stroke="#eb6834" stroke-width="2"/>
<rect x="79.5" y="331.5" width="9.0" height="9.0" rx="1" fill="#eb6834" stroke="#fcfcfb" stroke-width="2"/>
<rect x="224.5" y="331.5" width="9.0" height="9.0" rx="1" fill="#eb6834" stroke="#fcfcfb" stroke-width="2"/>
<rect x="369.5" y="331.5" width="9.0" height="9.0" rx="1" fill="#eb6834" stroke="#fcfcfb" stroke-width="2"/>
<polyline points="84.0,186.0 229.0,186.0 374.0,186.0" fill="none" stroke="#1baf7a" stroke-width="2"/>
<polygon points="84.0,180.5 89.5,190.5 78.5,190.5" fill="#1baf7a" stroke="#fcfcfb" stroke-width="2"/>
<polygon points="229.0,180.5 234.5,190.5 223.5,190.5" fill="#1baf7a" stroke="#fcfcfb" stroke-width="2"/>
<polygon points="374.0,180.5 379.5,190.5 368.5,190.5" fill="#1baf7a" stroke="#fcfcfb" stroke-width="2"/>
<text x="383.0" y="190.0" font-size="11" fill="#52514e">K=100</text>
<text x="383.0" y="340.0" font-size="11" fill="#52514e">K=25</text>
<text x="383.0" y="380.0" font-size="11" fill="#52514e">K=5</text>
<line x1="64" y1="386" x2="394" y2="386" stroke="#52514e" stroke-width="1"/>
<text x="615.0" y="70" font-size="13" text-anchor="middle" fill="#0b0b0b">evolutionary</text>
<line x1="450" y1="386.0" x2="780" y2="386.0" stroke="#e4e3df" stroke-width="1"/>
<line x1="450" y1="286.0" x2="780" y2="286.0" stroke="#e4e3df" stroke-width="1"/>
<line x1="450" y1="186.0" x2="780" y2="186.0" stroke="#e4e3df" stroke-width="1"/>
<line x1="450" y1="86.0" x2="780" y2="86.0" stroke="#e4e3df" stroke-width="1"/>
<text x="470.0" y="404" font-size="11" text-anchor="middle" fill="#52514e">80</text>
<text x="615.0" y="404" font-size="11" text-anchor="middle" fill="#52514e">96</text>
<text x="760.0" y="404" font-size="11" text-anchor="middle" fill="#52514e">128</text>
<text x="615.0" y="424" font-size="12" text-anchor="middle" fill="#52514e">N</text>
<polyline points="470.0,376.0 615.0,376.0 760.0,376.0" fill="none" stroke="#2a78d6" stroke-width="2"/>
<circle cx="470.0" cy="376.0" r="4.5" fill="#2a78d6" stroke="#fcfcfb" stroke-width="2"/>
<circle cx="615.0" cy="376.0" r="4.5" fill="#2a78d6" stroke="#fcfcfb" stroke-width="2"/>
<circle cx="760.0" cy="376.0" r="4.5" fill="#2a78d6" stroke="#fcfcfb" stroke-width="2"/>
<polyline points="470.0,307.3 615.0,305.3 760.0,306.7" fill="none" stroke="#eb6834" stroke-width="2"/>
<line x1="470.0" y1="302.3" x2="470.0" y2="312.4" stroke="#eb6834" stroke-width="1.5"/>
<rect x="465.5" y="302.8" width="9.0" height="9.0" rx="1" fill="#eb6834" stroke="#fcfcfb" stroke-width="2"/>
<line x1="615.0" y1="302.3" x2="615.0" y2="308.4" stroke="#eb6834" stroke-width="1.5"/>
<rect x="610.5" y="300.8" width="9.0" height="9.0" rx="1" fill="#eb6834" stroke="#fcfcfb" stroke-width="2"/>
<line x1="760.0" y1="299.6" x2="760.0" y2="313.7" stroke="#eb6834" stroke-width="1.5"/>
<rect x="755.5" y="302.2" width="9.0" height="9.0" rx="1" fill="#eb6834" stroke="#fcfcfb" stroke-width="2"/>
<polyline points="470.0,122.0 615.0,122.0 760.0,90.7" fill="none" stroke="#1baf7a" stroke-width="2"/>
<line x1="470.0" y1="114.8" x2="470.0" y2="129.2" stroke="#1baf7a" stroke-width="1.5"/>
<polygon points="470.0,116.5 475.5,126.5 464.5,126.5" fill="#1baf7a" stroke="#fcfcfb" stroke-width="2"/>
<line x1="615.0" y1="116.7" x2="615.0" y2="127.3" stroke="#1baf7a" stroke-width="1.5"/>
<polygon points="615.0,116.5 620.5,126.5 609.5,126.5" fill="#1baf7a" stroke="#fcfcfb" stroke-width="2"/>
<line x1="760.0" y1="86.5" x2="760.0" y2="94.8" stroke="#1baf7a" stroke-width="1.5"/>
<polygon points="760.0,85.2 765.5,95.2 754.5,95.2" fill="#1baf7a" stroke="#fcfcfb" stroke-width="2"/>
<text x="769.0" y="94.7" font-size="11" fill="#52514e">K=100</text>
<text x="769.0" y="310.7" font-size="11" fill="#52514e">K=25</text>
<text x="769.0" y="380.0" font-size="11" fill="#52514e">K=5</text>
<line x1="450" y1="386" x2="780" y2="386" stroke="#52514e" stroke-width="1"/>
<text x="16" y="236.0" font-size="12" fill="#52514e" text-anchor="middle" transform="rotate(-90 16 236.0)">celdas ocupadas</text>
<text x="64" y="464" font-size="11" fill="#52514e">Media entre semillas; las barras verticales indican ± una desviación estándar.</text>
</svg>